<?xml version="1.0" encoding="UTF-8"?>
<!-- Generator: Adobe Illustrator 16.0.0, SVG Export Plug-In . SVG Version: 6.00 Build 0)  -->
<!DOCTYPE svg PUBLIC "-//W3C//DTD SVG 1.1//EN" "http://www.w3.org/Graphics/SVG/1.1/DTD/svg11.dtd">
<svg version="1.1" id="Layer_1" xmlns="http://www.w3.org/2000/svg" xmlns:xlink="http://www.w3.org/1999/xlink" x="0px" y="0px" width="1134.697px" height="170.395px" viewBox="0 0 1134.697 170.395" enable-background="new 0 0 1134.697 170.395" xml:space="preserve">
<g>
	<path fill="#3952E7" d="M286.2,1.959h44.915v125.392h78.486v40.22H286.2V1.959z"/>
</g>
<g>
	<path fill="#3952E7" d="M433.677,1.959h130.347v39.037h-85.895v25.078h77.791v36.198h-77.791v26.261h87.052v39.037H433.677V1.959z"/>
</g>
<g>
	<path fill="#3952E7" d="M583.224,143.094l24.873-30.36c15.891,12.944,33.624,19.77,52.278,19.77   c11.976,0,18.424-4.236,18.424-11.297v-0.471c0-6.825-5.297-10.591-27.176-15.769c-34.314-8.002-60.799-17.887-60.799-51.777   v-0.471C590.824,22.123,614.545,0,653.235,0c27.406,0,48.824,7.531,66.327,21.888l-22.34,32.243   c-14.739-10.591-30.86-16.239-45.139-16.239c-10.824,0-16.121,4.707-16.121,10.591v0.471c0,7.531,5.527,10.826,27.866,16.004   c37.079,8.237,60.108,20.476,60.108,51.307v0.471c0,33.655-26.023,53.66-65.175,53.66   C630.205,170.395,603.03,161.216,583.224,143.094z"/>
</g>
<g>
	<path fill="#3952E7" d="M737.522,143.094l24.873-30.36c15.891,12.944,33.624,19.77,52.278,19.77   c11.976,0,18.424-4.236,18.424-11.297v-0.471c0-6.825-5.297-10.591-27.176-15.769c-34.314-8.002-60.799-17.887-60.799-51.777   v-0.471C745.123,22.123,768.844,0,807.534,0c27.406,0,48.824,7.531,66.327,21.888l-22.34,32.243   c-14.739-10.591-30.86-16.239-45.139-16.239c-10.824,0-16.121,4.707-16.121,10.591v0.471c0,7.531,5.527,10.826,27.866,16.004   c37.079,8.237,60.108,20.476,60.108,51.307v0.471c0,33.655-26.023,53.66-65.175,53.66   C784.504,170.395,757.329,161.216,737.522,143.094z"/>
</g>
<g>
	<path fill="#3952E7" d="M904.335,1.959h45.146V167.57h-45.146V1.959z"/>
</g>
<g>
	<path fill="#3952E7" d="M976.105,85.238v-0.473c0-48.264,37.043-86.118,87.283-86.118c28.478,0,48.62,8.99,65.753,24.132   l-26.394,32.413c-11.576-9.937-23.152-15.615-39.127-15.615c-23.384,0-41.442,20.11-41.442,45.425v0.473   c0,26.734,18.29,45.897,43.988,45.897c10.882,0,19.217-2.365,25.931-6.86v-20.11h-31.95V70.806h74.55v74.525   c-17.132,14.432-40.979,25.552-70.382,25.552C1013.844,170.883,976.105,135.395,976.105,85.238z"/>
</g>
<g>
	<defs>
		<rect id="SVGID_1_" x="0" y="4.308" width="220" height="163.26"/>
	</defs>
	<clipPath id="SVGID_2_">
		<use xlink:href="#SVGID_1_" overflow="visible"/>
	</clipPath>
	<path clip-path="url(#SVGID_2_)" fill="#FF4E4E" d="M88,63.354h132V4.308H88V63.354z M0,167.567h220v-59.174H0V167.567z"/>
</g>
<rect y="4.308" fill="#3952E7" width="88" height="59.046"/>
</svg>